<svg xmlns="http://www.w3.org/2000/svg" id="facebook" width="40.312" height="40.316" viewBox="0 0 40.312 40.316"><path id="Path_5627" data-name="Path 5627" d="M498.127,259.108c-.777-.1-1.562-.17-2.331-.318A19.838,19.838,0,0,1,481.519,248.4a18.675,18.675,0,0,1-2.332-10.3,19.761,19.761,0,0,1,10.668-16.933,18.461,18.461,0,0,1,10.3-2.338,19.785,19.785,0,0,1,16.939,10.661,18.675,18.675,0,0,1,2.3,7.939,2.733,2.733,0,0,0,.067.34v2.362a2.733,2.733,0,0,0-.067.34,18.975,18.975,0,0,1-2.3,7.937,19.889,19.889,0,0,1-14.276,10.378c-.769.148-1.553.214-2.33.318Zm1.191-38.477a18.326,18.326,0,1,0,18.316,18.336,18.352,18.352,0,0,0-18.316-18.336Z" transform="translate(-479.149 -218.793)" fill="#fdfdfd"></path><path id="Path_5628" data-name="Path 5628" d="M647,348.013v-2.755h1.813c0-.189-.008-.353,0-.517a26,26,0,0,1,.17-2.619,2.517,2.517,0,0,1,1.9-2.091,16.032,16.032,0,0,1,4.306-.277v2.755h-1.448c-1.074.02-1.273.222-1.279,1.3v1.424h2.755c-.108.949-.21,1.841-.313,2.755h-2.434v8.24h-3.656v-8.221Z" transform="translate(-630.483 -327.843)" fill="#fdfdfd"></path></svg>