<svg xmlns="http://www.w3.org/2000/svg" id="instagram" width="40.812" height="40.809" viewBox="0 0 40.812 40.809"><path id="Path_5629" data-name="Path 5629" d="M461.908,172.7a20.4,20.4,0,1,1-20.418,20.39A20.447,20.447,0,0,1,461.908,172.7Zm18.574,20.423A18.59,18.59,0,1,0,461.848,211.7a18.6,18.6,0,0,0,18.635-18.572Z" transform="translate(-441.49 -172.7)" fill="#fdfdfd"></path><path id="Path_5630" data-name="Path 5630" d="M549.78,268.63h8.427a3.9,3.9,0,0,1,2.5.78,3.621,3.621,0,0,1,1.391,2.99q.012,8.564,0,17.128a3.551,3.551,0,0,1-2.784,3.663,4.384,4.384,0,0,1-1.093.119q-8.465.01-16.931,0a3.581,3.581,0,0,1-3.749-2.774,4.149,4.149,0,0,1-.121-1.05q-.011-8.505,0-17.01a3.685,3.685,0,0,1,1.4-3.069,3.888,3.888,0,0,1,2.5-.777Zm-.022,1.82h-8.466a1.823,1.823,0,0,0-2.054,2.026q0,8.5,0,17.011a1.806,1.806,0,0,0,2,2q8.525.007,17.051,0a1.8,1.8,0,0,0,1.994-2.005q.006-8.5,0-17.011a2.406,2.406,0,0,0-.149-.924,1.817,1.817,0,0,0-1.863-1.107C555.428,270.455,552.593,270.45,549.759,270.45Z" transform="translate(-529.353 -260.567)" fill="#fdfdfd"></path><path id="Path_5631" data-name="Path 5631" d="M608.534,332.78a6.951,6.951,0,1,1-6.944,6.966A6.951,6.951,0,0,1,608.534,332.78Zm5.14,6.986a5.112,5.112,0,1,0-1.53,3.633,5.134,5.134,0,0,0,1.53-3.633Z" transform="translate(-588.134 -319.326)" fill="#fdfdfd"></path><path id="Path_5632" data-name="Path 5632" d="M750.021,302.915a2.247,2.247,0,1,1-2.238-2.255,2.259,2.259,0,0,1,2.238,2.255Zm-2.125-.48-.19-.007c-.118.157-.3.3-.336.474a.363.363,0,0,0,.391.433c.256.008.457-.141.42-.4-.025-.176-.188-.334-.289-.5Z" transform="translate(-719.974 -289.905)" fill="#fdfdfd"></path></svg>