<svg xmlns="http://www.w3.org/2000/svg" width="40.315" height="40.312" viewBox="0 0 40.315 40.312"><g id="pinterest" transform="translate(0)"><path id="Path_5633" data-name="Path 5633" d="M519.43,221.174c-.1.776-.17,1.56-.318,2.327a19.84,19.84,0,0,1-10.384,14.279,18.68,18.68,0,0,1-10.3,2.334A19.758,19.758,0,0,1,481.5,229.449a18.459,18.459,0,0,1-2.34-10.3A19.787,19.787,0,0,1,489.849,202.2a18.645,18.645,0,0,1,7.942-2.291,2.058,2.058,0,0,0,.3-.065h2.362a2.059,2.059,0,0,0,.3.065,18.583,18.583,0,0,1,7.028,1.83,19.9,19.9,0,0,1,11.323,14.751c.15.767.214,1.551.318,2.326Zm-1.827-1.166a18.326,18.326,0,1,0-18.341,18.311A18.35,18.35,0,0,0,517.6,220.008Z" transform="translate(-479.114 -199.84)" fill="#fdfdfd"></path><path id="Path_5634" data-name="Path 5634" d="M615.732,332.57c-.557,2.324-1.06,4.625-2.848,6.489-.067-.277-.116-.444-.146-.614a11.936,11.936,0,0,1,.448-5.2c.308-1.165.565-2.343.886-3.505a1.9,1.9,0,0,0-.1-1.29,3.161,3.161,0,0,1,.757-3.3,1.535,1.535,0,0,1,1.878-.281,1.616,1.616,0,0,1,.744,1.862c-.277,1.051-.535,2.11-.87,3.142a1.725,1.725,0,0,0,2.081,2.131,2.917,2.917,0,0,0,1.764-1.165,7.039,7.039,0,0,0,1.106-5.47,3.493,3.493,0,0,0-2.657-2.73,5.778,5.778,0,0,0-4.534.467,4.694,4.694,0,0,0-2.15,5.829c.083.188.267.332.341.521a1.99,1.99,0,0,1,.152.725,2.686,2.686,0,0,1-.167.643c-.1.394-.234.478-.622.33a3.086,3.086,0,0,1-1.4-1.279,4.66,4.66,0,0,1-.59-3.915,6.71,6.71,0,0,1,4.568-4.891,8.316,8.316,0,0,1,6.612.394,5.55,5.55,0,0,1,3.2,4.931,7.369,7.369,0,0,1-2.154,5.946,4.734,4.734,0,0,1-4.321,1.383,3.3,3.3,0,0,1-1.974-1.152Z" transform="translate(-596.777 -308.685)" fill="#fdfdfd"></path></g></svg>