<svg xmlns="http://www.w3.org/2000/svg" id="youtube" width="38.518" height="38.519" viewBox="0 0 38.518 38.519"><path id="Path_5635" data-name="Path 5635" d="M506.785,256.739a19.259,19.259,0,1,1,19.273-19.21A19.284,19.284,0,0,1,506.785,256.739Zm17.656-19.288a17.641,17.641,0,1,0-17.592,17.671,17.637,17.637,0,0,0,17.592-17.671Z" transform="translate(-487.54 -218.22)" fill="#fdfdfd"></path><path id="Path_5636" data-name="Path 5636" d="M593,341.292h4.869a4.758,4.758,0,0,1,4.963,4.969v4.39a4.755,4.755,0,0,1-4.926,4.931q-4.92.009-9.847,0a4.754,4.754,0,0,1-4.925-4.932q-.006-2.213,0-4.428a4.758,4.758,0,0,1,4.925-4.932C589.711,341.288,591.353,341.292,593,341.292Zm-.037,12.676h4.98a3.137,3.137,0,0,0,3.285-3.259q.016-2.269,0-4.537a3.139,3.139,0,0,0-3.284-3.261h-9.922a3.138,3.138,0,0,0-3.285,3.259q-.016,2.269,0,4.538a3.14,3.14,0,0,0,3.283,3.261Q590.493,353.971,592.963,353.967Z" transform="translate(-573.723 -329.178)" fill="#fdfdfd"></path><path id="Path_5637" data-name="Path 5637" d="M656.7,382.748c0-.725-.008-1.45,0-2.177a1.031,1.031,0,0,1,1.653-.972q1.942,1.092,3.869,2.206a1.081,1.081,0,0,1-.021,1.994q-1.958,1.1-3.936,2.155a1.015,1.015,0,0,1-1.553-.886c-.031-.773-.007-1.549-.007-2.324Zm4.005.037-2.379-1.36v2.663Z" transform="translate(-640.049 -363.537)" fill="#fdfdfd"></path></svg>