<svg xmlns="http://www.w3.org/2000/svg" xmlns:xlink="http://www.w3.org/1999/xlink" id="Layer_1" x="0px" y="0px" viewBox="0 0 65 60" style="enable-background:new 0 0 65 60;" xml:space="preserve"><style type="text/css">	.st0{fill:#1A395B;}	.st1{fill:#FFFFFF;}</style><path class="st0" d="M9.4,0h46.3C60.8,0,65,3.9,65,8.6v42.7c0,4.8-4.2,8.6-9.4,8.6H9.4C4.2,60,0,56.1,0,51.4V8.6C0,3.9,4.2,0,9.4,0z "></path><path class="st1" d="M36.2,13.8l-6,6.4l-5-5.1L15,28.6v15.7h33.1V27.2L36.2,13.8z M31.1,22.3L31.1,22.3l4.7-5.9l0,0l9.3,25 l-15.6-5.3l0,0L31.1,22.3z M29.2,22.3l-0.8,7l-1.1-9.5L29.2,22.3z M25.3,18.6l2,17.6L17,41.5V29.4L25.3,18.6z M20.7,42.6l7.8-3.9 l0,0l11.8,3.9H20.7z M39.8,20.7l6.4,7.4v10L39.8,20.7z"></path></svg>